<svg width="13" height="14" viewBox="0 0 13 14" fill="none" xmlns="http://www.w3.org/2000/svg">
<path d="M13.0128 5.3847L9.04674 4.80802L7.27379 1.21198C7.22537 1.11352 7.1457 1.03382 7.04729 0.985371C6.80049 0.863471 6.50057 0.965054 6.37717 1.21198L4.60422 4.80802L0.63812 5.3847C0.528775 5.40032 0.428802 5.4519 0.352261 5.53004C0.259726 5.62519 0.208736 5.75321 0.210493 5.88596C0.212251 6.0187 0.266612 6.14532 0.361633 6.23799L3.23116 9.037L2.55322 12.9894C2.53732 13.0813 2.54749 13.1759 2.58257 13.2623C2.61766 13.3488 2.67625 13.4236 2.75171 13.4785C2.82717 13.5333 2.91647 13.5659 3.0095 13.5725C3.10252 13.5792 3.19555 13.5596 3.27802 13.516L6.82548 11.65L10.3729 13.516C10.4698 13.5676 10.5823 13.5848 10.69 13.566C10.9618 13.5191 11.1446 13.2613 11.0977 12.9894L10.4198 9.037L13.2893 6.23799C13.3674 6.16142 13.419 6.06139 13.4346 5.952C13.4768 5.6785 13.2862 5.42533 13.0128 5.3847Z" fill="black"/>
</svg>
