<svg width="14" height="13" viewBox="0 0 14 13" fill="none" xmlns="http://www.w3.org/2000/svg">
<path d="M13.1892 4.51718L9.22203 3.94061L7.44859 0.3453C7.40015 0.246863 7.32046 0.167175 7.22203 0.118737C6.97515 -0.00313754 6.67515 0.098425 6.55171 0.3453L4.77828 3.94061L0.811089 4.51718C0.701714 4.5328 0.601714 4.58436 0.525151 4.66249C0.432592 4.75762 0.381587 4.88561 0.383345 5.01833C0.385103 5.15106 0.439479 5.27765 0.534526 5.3703L3.40484 8.16874L2.72671 12.1203C2.71081 12.2122 2.72098 12.3068 2.75608 12.3932C2.79117 12.4796 2.84978 12.5545 2.92526 12.6093C3.00074 12.6641 3.09007 12.6967 3.18312 12.7034C3.27617 12.71 3.36922 12.6904 3.45171 12.6469L7.00015 10.7812L10.5486 12.6469C10.6455 12.6984 10.758 12.7156 10.8658 12.6969C11.1377 12.65 11.3205 12.3922 11.2736 12.1203L10.5955 8.16874L13.4658 5.3703C13.5439 5.29374 13.5955 5.19374 13.6111 5.08436C13.6533 4.81093 13.4627 4.5578 13.1892 4.51718ZM9.38765 7.77499L9.95172 11.0609L7.00015 9.51093L4.04859 11.0625L4.61265 7.77655L2.22515 5.44843L5.52515 4.96874L7.00015 1.97968L8.47515 4.96874L11.7752 5.44843L9.38765 7.77499Z" fill="#333333"/>
</svg>
